<svg xmlns="http://www.w3.org/2000/svg" width="124" height="124" viewBox="8 8 124 124"><title>Basketin</title><defs><mask id="bkm" maskUnits="userSpaceOnUse" x="0" y="0" width="140" height="140"><rect width="140" height="140" fill="#fff"/><g stroke="#000" stroke-width="5" fill="none"><path d="M0,70 L140,70"/><path d="M70,0 L70,140"/><path d="M30,24 Q54,70 30,116"/><path d="M110,24 Q86,70 110,116"/></g></mask></defs><g mask="url(#bkm)"><path d="M70,70 L10,70 A60,60 0 0 1 70,10 Z" fill="#0096FF"/><path d="M70,70 L70,10 A60,60 0 0 1 130,70 Z" fill="#FF9300"/><path d="M70,70 L130,70 A60,60 0 0 1 70,130 Z" fill="#00B050"/><path d="M70,70 L70,130 A60,60 0 0 1 10,70 Z" fill="#BFBFBF"/></g></svg>
